<svg viewBox="0 0 115 27" xmlns="http://www.w3.org/2000/svg" xmlns:xlink="http://www.w3.org/1999/xlink"><title>Slice 1</title><defs><path id="a" d="M0 .124h114.999V26H0"/><path id="c" d="M0 .124h114.999V26H0"/><path id="e" d="M0 .124h114.999V26H0V.124z"/></defs><g fill="none" fill-rule="evenodd"><path d="M14.109 16.357h2.345c.683 0 1.11-.388 1.11-1.005 0-.588-.427-1.005-1.11-1.005H14.11a.188.188 0 0 0-.188.19v1.63c0 .105.084.19.188.19m0 3.976h2.43c.754 0 1.21-.402 1.21-1.091 0-.602-.427-1.091-1.21-1.091h-2.43a.188.188 0 0 0-.188.19v1.803c0 .104.084.189.188.189m18.735-5.027c-.458-.61-1.223-1.102-2.146-1.102-1.736 0-2.989 1.335-2.989 3.143 0 1.809 1.253 3.144 2.99 3.144.801 0 1.55-.341 1.951-.684a.16.16 0 0 0 .054-.123v-.922a.15.15 0 0 0-.15-.152H30.4c-.11 0-.2-.09-.2-.202v-1.375c0-.112.09-.203.2-.203h3.975v-2.166l-1.273.702a.206.206 0 0 1-.258-.06m3.327 2.033c0-2.957 2.1-4.952 4.804-4.952 1.761 0 2.893.907 3.576 1.992.05.08.022.184-.06.23l-1.08.592a.154.154 0 0 1-.204-.056c-.461-.738-1.31-1.265-2.232-1.265-1.812 0-3.156 1.435-3.156 3.46 0 1.994 1.344 3.46 3.156 3.46.923 0 1.772-.542 2.233-1.27a.156.156 0 0 1 .201-.057l1.089.57a.16.16 0 0 1 .061.231c-.706 1.086-1.825 2.017-3.584 2.017-2.704 0-4.804-2.009-4.804-4.952m17.036 0c0-1.98-1.195-3.459-3.036-3.459-1.855 0-3.037 1.478-3.037 3.46 0 1.966 1.182 3.46 3.037 3.46 1.84 0 3.036-1.494 3.036-3.46m-7.722 0c0-2.383 1.348-4.236 3.389-4.786 3.449-.929 6.614 2.331 5.864 5.97-.461 2.232-2.227 3.767-4.567 3.767-2.748 0-4.686-2.095-4.686-4.952m19.216 4.668v-7.28l-2.883 7.341a.08.08 0 0 1-.074.051h-.603a.08.08 0 0 1-.074-.05l-2.897-7.341v7.278c0 .062-.05.113-.112.113h-1.442a.113.113 0 0 1-.112-.113v-9.349c0-.062.05-.112.112-.112H58.7c.092 0 .176.057.21.143l2.533 6.57 2.52-6.569a.225.225 0 0 1 .21-.144h2.083c.061 0 .112.05.112.112v9.35c0 .061-.051.112-.112.112h-1.442a.112.112 0 0 1-.112-.113m16.395-.06v-9.228c0-.095.078-.173.172-.173h6.16c.094 0 .172.078.172.173v1.132a.172.172 0 0 1-.172.173h-4.495a.173.173 0 0 0-.171.174v2.122c0 .096.076.173.171.173h4.396c.094 0 .172.078.172.173v1.132a.173.173 0 0 1-.172.174h-4.396a.172.172 0 0 0-.171.173v2.324c0 .095.076.173.171.173h4.495c.094 0 .172.077.172.173v1.132a.172.172 0 0 1-.172.173h-6.16a.172.172 0 0 1-.172-.173m14.448-6.415c0-.92-.683-1.507-1.622-1.507h-2.121a.17.17 0 0 0-.17.17v2.7c0 .096.076.173.17.173h2.121c.939 0 1.622-.603 1.622-1.536m-.206 6.504l-1.993-3.406a.17.17 0 0 0-.147-.084h-1.397a.171.171 0 0 0-.17.172v3.23a.17.17 0 0 1-.17.172h-1.325a.17.17 0 0 1-.17-.171v-9.231c0-.095.076-.172.17-.172h4c1.878 0 3.116 1.22 3.116 3 0 1.576-.961 2.494-2.023 2.764-.115.029-.174.155-.111.257l2.043 3.292a.171.171 0 0 1-.145.26h-1.531a.172.172 0 0 1-.147-.083" fill="#FFF"/><mask id="b" fill="#fff"><use xlink:href="#a"/></mask><path d="M108.496 21.95v-9.236c0-.094.075-.169.168-.169h6.168c.092 0 .167.075.167.17v1.14a.168.168 0 0 1-.167.168h-4.503a.168.168 0 0 0-.168.17v2.13c0 .093.075.17.168.17h4.404c.092 0 .167.075.167.168v1.14a.168.168 0 0 1-.167.17h-4.404a.168.168 0 0 0-.168.168v2.333c0 .093.075.17.168.17h4.503c.092 0 .167.074.167.167v1.141a.169.169 0 0 1-.167.17h-6.168a.169.169 0 0 1-.168-.17" fill="#FFF" mask="url(#b)"/><path d="M98.47 17.3c0-2.958 2.1-4.953 4.805-4.953 1.76 0 2.893.907 3.576 1.992.05.08.022.184-.06.23l-1.081.592a.154.154 0 0 1-.203-.056c-.461-.738-1.31-1.265-2.232-1.265-1.812 0-3.157 1.435-3.157 3.46 0 1.994 1.345 3.46 3.157 3.46.923 0 1.772-.542 2.233-1.27a.156.156 0 0 1 .2-.057l1.09.57a.16.16 0 0 1 .06.231c-.705 1.086-1.824 2.017-3.583 2.017-2.705 0-4.804-2.009-4.804-4.952m-21.477 4.707v-7.279l-2.883 7.341a.08.08 0 0 1-.074.051h-.603a.08.08 0 0 1-.074-.05l-2.897-7.341v7.278c0 .062-.05.113-.112.113H68.91a.113.113 0 0 1-.112-.113v-9.349c0-.062.05-.112.112-.112h2.083c.092 0 .175.057.21.143l2.533 6.57 2.519-6.569a.225.225 0 0 1 .21-.144h2.083c.061 0 .112.05.112.112v9.35c0 .061-.05.112-.112.112h-1.442a.112.112 0 0 1-.112-.113" fill="#FFF"/><mask id="d" fill="#fff"><use xlink:href="#c"/></mask><path d="M.883 26h15.869l-.01-.006H.846c.013.001.024.006.037.006" fill="#FFF" mask="url(#d)"/><g><mask id="f" fill="#fff"><use xlink:href="#e"/></mask><path d="M23.766 21.953a.173.173 0 0 1-.173.174h-1.676a.173.173 0 0 1-.172-.174v-9.227c0-.096.077-.173.172-.173h1.676c.095 0 .173.077.173.173v9.227zM33.194.184a.84.84 0 0 0-.299.19l-16.462 12.18h.462c1.808 0 2.733 1.161 2.733 2.438 0 .993-.514 1.726-1.203 2.051a.145.145 0 0 0 .006.27c.804.333 1.381 1.201 1.381 2.215 0 1.45-.939 2.6-2.76 2.6h-4.964a.19.19 0 0 1-.188-.19v-6.04L.244 24.495c-.523.555-.151 1.467.602 1.498h32.662a.872.872 0 0 0 .867-.875V20.86c-.934.884-2.165 1.44-3.678 1.44-2.788 0-5.065-1.939-5.065-4.953 0-3.029 2.277-4.952 5.065-4.952 1.764 0 2.94.81 3.678 1.796V.991a.863.863 0 0 0-1.181-.807z" fill="#FFF" mask="url(#f)"/></g></g></svg>