<svg width="60" height="60" viewBox="0 0 60 60" xmlns="http://www.w3.org/2000/svg" xmlns:xlink="http://www.w3.org/1999/xlink"><title>Group</title><defs><rect id="a" width="60" height="60" rx="3"/><mask id="b" x="0" y="0" width="60" height="60" fill="#fff"><use xlink:href="#a"/></mask></defs><g fill="none" fill-rule="evenodd"><use stroke="#EBEBEC" mask="url(#b)" stroke-width="2" fill="#FFF" xlink:href="#a"/><path d="M8.584 29.164S8.76 26 12.296 26c3.523-.001 3.523 3.164 3.523 3.164H8.584zm3.772-4.816c-6.146-.001-6.385 4.83-6.354 6.084 0 0-.3 5.648 6.204 5.648 5.59 0 5.865-3.544 5.865-3.544l-2.572.005s-.5 1.953-3.282 1.9c-3.576-.067-3.715-3.565-3.715-3.565h9.907s.751-6.527-6.053-6.528z" fill-opacity=".797" fill="#D0011B"/><path d="M23.267 34.439c-3.903.05-3.84-4.18-3.84-4.18s-.142-4.07 3.833-4.175c3.976-.104 3.846 4.262 3.846 4.262s.064 4.043-3.84 4.093zm.567-10.046c-3.09-.017-4.42 1.848-4.42 1.848V20h-2.478l.042 13.19s-.015 1.536-.108 2.552h2.406l.103-1.482s1.123 1.865 4.403 1.865c3.281 0 5.871-2.04 5.94-5.822.07-3.783-2.797-5.893-5.888-5.91z" fill="#3880D4"/><path d="M35.116 34.538s-2.484.003-2.63-2c-.155-2.138 3.821-2.01 3.821-2.01l2.809-.002s.455 4.07-4 4.012zm6.475-1.392c.006-1.706.056-3.23 0-4.305-.065-1.246.052-4.253-5.284-4.475 0 0-5.115-.47-5.646 3.373h2.616s.203-1.76 2.858-1.71c2.512.048 2.97 1.292 2.957 2.822 0 0-2.154.006-2.872.01-1.295.006-5.827.15-6.25 2.938-.503 3.313 2.426 4.347 4.718 4.334 2.293-.013 3.6-.706 4.572-1.948l.104 1.543 2.279-.013s-.059-.863-.052-2.57z" fill="#F6A623"/><path fill="#7ED321" d="M43.657 24.348l4.205 8.464 4.213-8.464h2.599l-7.607 15.088h-2.78l2.202-4.193-5.706-10.895z"/></g></svg>