<svg width="60" height="60" viewBox="0 0 60 60" xmlns="http://www.w3.org/2000/svg"><title>Pinterest Icon</title><g fill="none" fill-rule="evenodd"><rect fill="#CB2027" width="60" height="60" rx="3"/><path d="M21.736 50.98c.036.262.392.327.554.13.229-.287 3.196-3.83 4.204-7.374.285-1.007 1.636-6.198 1.636-6.198.81 1.504 3.175 2.811 5.69 2.811 7.485 0 12.563-6.603 12.563-15.443C46.383 18.224 40.53 12 31.639 12 20.58 12 15 19.676 15 26.07c0 3.884 1.517 7.323 4.766 8.617.536.21 1.014 0 1.167-.562.108-.405.362-1.4.477-1.818.154-.562.095-.758-.335-1.255-.939-1.072-1.539-2.458-1.539-4.42 0-5.688 4.405-10.788 11.465-10.788 6.252 0 9.688 3.701 9.688 8.63 0 6.5-2.97 11.992-7.378 11.992-2.44 0-4.262-1.949-3.679-4.342.702-2.863 2.058-5.936 2.058-8.002 0-1.844-1.023-3.374-3.14-3.374-2.491 0-4.492 2.484-4.492 5.832 0 2.118.744 3.557.744 3.557l-2.996 12.278c-.889 3.648-.135 8.12-.07 8.565" fill="#FFF"/></g></svg>