<svg width="60" height="60" viewBox="0 0 60 60" xmlns="http://www.w3.org/2000/svg"><title>Twitter Icon</title><g fill="none" fill-rule="evenodd"><rect fill="#2DAAE1" width="60" height="60" rx="3"/><path d="M48.951 16.56A15.77 15.77 0 0 1 44 18.424 7.835 7.835 0 0 0 38.31 16c-4.304 0-7.795 3.436-7.795 7.674 0 .602.07 1.185.2 1.75a22.25 22.25 0 0 1-16.067-8.02 7.553 7.553 0 0 0-1.056 3.86c0 2.66 1.379 5.01 3.469 6.386a7.87 7.87 0 0 1-3.531-.96v.096c0 3.717 2.687 6.82 6.254 7.526a7.953 7.953 0 0 1-3.522.131c.994 3.048 3.871 5.268 7.282 5.33a15.808 15.808 0 0 1-9.682 3.284c-.631 0-1.25-.037-1.861-.106a22.349 22.349 0 0 0 11.952 3.446c14.34 0 22.179-11.691 22.179-21.833 0-.333-.005-.665-.02-.994A15.661 15.661 0 0 0 50 19.598c-1.398.61-2.9 1.022-4.477 1.207a7.719 7.719 0 0 0 3.428-4.245" fill="#FFF"/></g></svg>