<svg xmlns="http://www.w3.org/2000/svg" width="60" height="60" viewBox="0 0 60 60"><title>Amazon icon</title><g fill="none"><rect width="60" height="60" rx="3" fill="#FDC133"/><g fill="#FFF"><path d="M11 41.2c5 4.3 10.5 8.4 17.9 8.4h.5c4.7-.2 10-1.7 14.1-4.3l.1-.1c.5-.3 1-.6 1.6-1.1.3-.2.5-.6.5-.9 0-.7-.6-1.2-1.2-1.2-.2 0-.4.1-.6.2-.2 0-.4.1-.6.2l-.3.2-.4.1c-4.3 1.7-8.7 2.7-12.9 2.8h-.4c-6.5 0-11.8-3-17.2-5.9-.2-.1-.4-.2-.5-.2-.3 0-.5.1-.7.3-.2.1-.3.4-.3.6 0 .4.2.7.4.9M51.9 38.1c-.1-.4-.1-.7-.3-1h-.1c-.1-.2-.3-.3-.5-.4-.5-.2-1.3-.3-2.3-.3-.6 0-1.4 0-2.2.2l-.7.2-.5.2c-.5.2-.9.4-1.3.8-.3.2-.5.4-.5.8-.1.2.1.5.2.6.2.2.4.2.6.2h.2c.4-.1.9-.1 1.6-.2.5 0 1.1-.1 1.6-.1.3 0 .7 0 .9.1h.2l.1.1v.2c0 .4-.2 1.2-.4 1.9-.3.8-.6 1.6-.8 2.1v.4c0 .1 0 .4.2.6.2.1.4.2.6.2.3 0 .5-.1.7-.3 2-1.7 2.6-4.5 2.7-6.1v-.2M30.6 32c-.6 1.3-1.7 2-2.8 2.3-.2 0-.5.1-.7.1-1.9 0-3.1-1.5-3.1-3.7 0-2.8 1.7-4.1 3.8-4.7 1.1-.3 2.4-.4 3.7-.4v1.1c0 2 .1 3.6-.9 5.3zm.9-10.4c-1.1.1-2.4.2-3.7.4-2 .2-4 .6-5.7 1.4-3.2 1.3-5.4 4.1-5.4 8.2 0 5.1 3.3 7.8 7.5 7.8 1.4 0 2.5-.2 3.6-.5 1.6-.5 3-1.5 4.7-3.2 1 1.3 1.2 1.9 2.9 3.3.4.2.9.2 1.2-.1 1.1-.8 2.9-2.4 3.8-3.3.5-.3.4-.9.1-1.3-.9-1.2-1.9-2.3-1.9-4.6v-7.9c0-3.3.3-6.4-2.2-8.7-2-1.8-5.1-2.5-7.6-2.5h-1c-4.5.3-9.2 2.2-10.3 7.7-.1.7.4 1 .7 1l4.9.7c.6-.1.8-.6.9-1 .5-1.9 2-2.9 3.8-3.1h.3c1.1 0 2.2.5 2.8 1.4.7 1 .6 2.4.6 3.6v.7z"/></g></g></svg>