<svg width="152" height="102" viewBox="0 0 152 102" xmlns="http://www.w3.org/2000/svg"><g fill="none" fill-rule="evenodd"><path d="M152 89c0 7.263-5.7 13-13 13H13c-7.3 0-13-5.737-13-13V13C0 5.737 5.7 0 13 0h126c7.3 0 13 5.737 13 13v76z" fill="#EEE"/><path fill="#DCDCDC" d="M0 18h152v20H0z"/><path fill="#FFF" d="M20 48h92v20H20z"/><path fill="#DCDCDC" d="M28 55h74v6H28z"/><path fill="#FFF" d="M118 48h24v20h-24z"/><path fill="#DCDCDC" d="M122 55h16v6h-16z"/><ellipse stroke="#E9564B" stroke-width="3" cx="130" cy="58" rx="20" ry="20"/></g></svg>