<svg width="88" height="54" viewBox="0 0 88 54" xmlns="http://www.w3.org/2000/svg"><title>CVV amex</title><g fill="none" fill-rule="evenodd"><rect fill="#DEDEDE" width="88" height="54" rx="3"/><text font-family="Avenir Next" font-size="6" font-weight="420" letter-spacing=".2" fill="#979BA1"><tspan x="11" y="35">3712 567890 374</tspan> <tspan x="70.21" y="35">5</tspan></text><path d="M69.182 26.767h-.551v-3.35l-.761.635-.324-.38 1.142-.926h.494v4.021zm4.191 0h-2.624v-.528l1.602-1.59c.12-.125.225-.256.312-.392a.836.836 0 0 0 .074-.747.67.67 0 0 0-.38-.358.796.796 0 0 0-.279-.048.69.69 0 0 0-.505.196.89.89 0 0 0-.25.503l-.54-.091a1.252 1.252 0 0 1 .82-.988 1.56 1.56 0 0 1 .96-.006c.154.05.29.121.407.216.117.094.21.214.28.357.07.144.106.309.106.495 0 .128-.017.248-.051.357-.034.11-.08.214-.14.313a1.821 1.821 0 0 1-.207.28 6.48 6.48 0 0 1-.25.265l-1.306 1.272h1.971v.494zm1.624-2.328h.176c.114 0 .225-.01.333-.032a.852.852 0 0 0 .286-.107.588.588 0 0 0 .202-.208.63.63 0 0 0 .077-.323.606.606 0 0 0-.213-.483.757.757 0 0 0-.497-.182.717.717 0 0 0-.435.13.794.794 0 0 0-.27.364l-.5-.176a1.19 1.19 0 0 1 .475-.57c.218-.139.469-.208.752-.208.167 0 .325.024.475.071.15.047.28.116.394.207.114.091.204.205.27.341.066.136.1.293.1.471a.92.92 0 0 1-.202.585.955.955 0 0 1-.508.33v.011c.117.023.226.063.326.12a.942.942 0 0 1 .429.505 1 1 0 0 1 .062.358 1.14 1.14 0 0 1-.415.914 1.32 1.32 0 0 1-.43.233c-.164.053-.33.08-.5.08-.319 0-.599-.073-.841-.216-.242-.144-.418-.368-.528-.67l.51-.17c.061.173.165.315.31.425.146.11.325.165.537.165a.937.937 0 0 0 .298-.049.772.772 0 0 0 .259-.144.714.714 0 0 0 .25-.574.64.64 0 0 0-.327-.582 1.01 1.01 0 0 0-.327-.125 1.794 1.794 0 0 0-.357-.037h-.17v-.454zm4.731.954h.58v.471h-.58v.903h-.534v-.903h-1.851v-.5l1.71-2.618h.675v2.647zm-.534-2.016h-.011l-1.272 2.016h1.283v-2.016z" opacity=".9" fill="#636363"/><rect stroke="#ED6A6A" stroke-width="2" x="65" y="16" width="18" height="18" rx="40"/></g></svg>