<svg width="88" height="54" viewBox="0 0 88 54" xmlns="http://www.w3.org/2000/svg"><title>CVV visa, mc, disc</title><g fill="none" fill-rule="evenodd"><rect fill="#DEDEDE" width="88" height="54" rx="3"/><path fill="#838383" d="M0 5h88v12H0z"/><path fill="#FFF" d="M3 23h82v10H3z"/><path d="M69.809 29.053c.016.297.13.502.344.616.11.06.233.09.37.09a.833.833 0 0 0 .659-.322c.181-.214.31-.65.385-1.305a.997.997 0 0 1-.444.399 1.412 1.412 0 0 1-.57.115c-.412 0-.739-.129-.979-.386s-.36-.588-.36-.993c0-.388.118-.73.356-1.025.237-.295.587-.443 1.05-.443.623 0 1.054.281 1.291.843.132.31.198.696.198 1.16 0 .525-.08.99-.237 1.394-.26.674-.703 1.011-1.327 1.011-.42 0-.737-.11-.954-.329a1.125 1.125 0 0 1-.326-.825h.544zm1.401-1.09c.176-.14.265-.387.265-.737 0-.315-.08-.55-.238-.705a.832.832 0 0 0-.606-.231c-.263 0-.472.088-.626.264-.155.177-.232.412-.232.707 0 .28.068.501.203.666.136.164.352.246.65.246.213 0 .408-.07.584-.21zm3.414-.563c.133-.132.2-.29.2-.474a.625.625 0 0 0-.191-.44c-.128-.133-.322-.2-.584-.2-.259 0-.446.067-.562.2a.695.695 0 0 0-.173.47.56.56 0 0 0 .224.473.85.85 0 0 0 .53.17c.237 0 .422-.066.556-.199zm.097 2.118c.164-.135.246-.336.246-.603 0-.277-.084-.487-.254-.63-.17-.144-.386-.216-.652-.216-.257 0-.467.073-.63.22-.162.146-.243.349-.243.608 0 .223.074.416.223.579.148.162.378.244.69.244.248 0 .455-.068.62-.202zm-1.736-1.937a.847.847 0 0 1-.236-.622c0-.319.115-.593.346-.822.232-.23.56-.344.984-.344.411 0 .733.108.966.325.233.216.35.469.35.758 0 .267-.068.483-.203.649a1.218 1.218 0 0 1-.353.275c.177.081.317.175.419.28.189.2.284.46.284.778 0 .377-.127.697-.38.959s-.611.393-1.074.393c-.416 0-.769-.113-1.057-.34-.288-.226-.432-.554-.432-.985 0-.253.062-.472.185-.656.124-.185.307-.326.55-.423a1.07 1.07 0 0 1-.35-.225zm5.614-1.422c.189.249.283.504.283.767h-.532a.982.982 0 0 0-.153-.397c-.13-.18-.326-.27-.589-.27-.301 0-.54.14-.718.418-.177.278-.276.676-.296 1.194a1.17 1.17 0 0 1 .467-.406c.171-.08.363-.12.574-.12.359 0 .672.115.939.344.267.23.4.571.4 1.026 0 .388-.126.733-.38 1.033-.252.3-.613.45-1.082.45-.4 0-.746-.152-1.037-.456-.291-.304-.437-.816-.437-1.536 0-.532.065-.983.194-1.354.25-.71.705-1.065 1.367-1.065.479 0 .812.124 1 .372zm-.403 3.275c.14-.19.21-.415.21-.674 0-.22-.062-.429-.188-.627s-.354-.297-.685-.297a.893.893 0 0 0-.608.23c-.175.153-.262.385-.262.694 0 .27.08.498.238.683.158.184.378.277.66.277.282 0 .494-.096.635-.286z" fill="#636363"/><rect stroke="#ED6A6A" stroke-width="2" x="65" y="19" width="18" height="18" rx="40"/></g></svg>